<svg xmlns="http://www.w3.org/2000/svg">
  <symbol 
    id="icon-moon"
    width="24" 
    height="24" 
    fill="none" 
    stroke="currentColor" 
    stroke-linecap="round" 
    stroke-linejoin="round" 
    stroke-width="2"
    style="stroke: var(--c, currentColor)"
    viewBox="0 0 24 24">
    <path d="M12 3a6 6 0 0 0 9 9 9 9 0 1 1-9-9Z"/>
  </symbol>

  <symbol
    id="icon-sun" 
    width="24" 
    height="24" 
    fill="none" 
    stroke="currentColor" 
    stroke-linecap="round" 
    stroke-linejoin="round" 
    stroke-width="2"
    style="stroke: var(--c, currentColor)"
    viewBox="0 0 24 24">
    <circle cx="12" cy="12" r="4"/>
    <path d="M12 2v2M12 20v2M4.93 4.93l1.41 1.41M17.66 17.66l1.41 1.41M2 12h2M20 12h2M6.34 17.66l-1.41 1.41M19.07 4.93l-1.41 1.41"/>
  </symbol>

  <symbol 
    id="icon-spinner"
    width="24" 
    height="24" 
    fill="none" 
    stroke="currentColor" 
    stroke-linecap="round" 
    stroke-linejoin="round" 
    stroke-width="2"
    style="stroke: var(--c, currentColor)"
    viewBox="0 0 24 24">
    <path d="M21 12a9 9 0 1 1-6.219-8.56"/>
  </symbol>

  <symbol 
    id="icon-x"
    width="24" 
    height="24" 
    fill="none" 
    stroke="currentColor" 
    stroke-linecap="round" 
    stroke-linejoin="round" 
    stroke-width="2"
    style="stroke: var(--c, currentColor)"
    viewBox="0 0 24 24">
    <path d="M18 6 6 18M6 6l12 12"/>
  </symbol>
</svg>
