<svg xmlns="http://www.w3.org/2000/svg">
  <symbol 
    id="icon-moon"
    width="24" 
    height="24" 
    fill="none" 
    stroke="currentColor" 
    stroke-linecap="round" 
    stroke-linejoin="round" 
    stroke-width="2"
    style="stroke: var(--c, currentColor)"
    viewBox="0 0 24 24">
    <path d="M12 3a6 6 0 0 0 9 9 9 9 0 1 1-9-9Z"/>
  </symbol>

  <symbol
    id="icon-sun" 
    width="24" 
    height="24" 
    fill="none" 
    stroke="currentColor" 
    stroke-linecap="round" 
    stroke-linejoin="round" 
    stroke-width="2"
    style="stroke: var(--c, currentColor)"
    viewBox="0 0 24 24">
    <circle cx="12" cy="12" r="4"/>
    <path d="M12 2v2M12 20v2M4.93 4.93l1.41 1.41M17.66 17.66l1.41 1.41M2 12h2M20 12h2M6.34 17.66l-1.41 1.41M19.07 4.93l-1.41 1.41"/>
  </symbol>

  <symbol 
    id="icon-spinner"
    width="24" 
    height="24" 
    fill="none" 
    stroke="currentColor" 
    stroke-linecap="round" 
    stroke-linejoin="round" 
    stroke-width="2"
    style="stroke: var(--c, currentColor)"
    viewBox="0 0 24 24">
    <path d="M21 12a9 9 0 1 1-6.219-8.56"/>
  </symbol>

  <symbol 
    id="icon-x"
    width="24" 
    height="24" 
    fill="none" 
    stroke="currentColor" 
    stroke-linecap="round" 
    stroke-linejoin="round" 
    stroke-width="2"
    style="stroke: var(--c, currentColor)"
    viewBox="0 0 24 24">
    <path d="M18 6 6 18M6 6l12 12"/>
  </symbol>

  <symbol 
    id="icon-logout"
    xmlns="http://www.w3.org/2000/svg" 
    fill="none" stroke="currentColor" 
    stroke-linecap="round" 
    stroke-linejoin="round" 
    stroke-width="2" 
    style="stroke: var(--c, currentColor)"
    viewBox="0 0 24 24">
    <path d="M9 21H5a2 2 0 0 1-2-2V5a2 2 0 0 1 2-2h4m7 14 5-5-5-5m5 5H9"/>
  </symbol>

  <symbol 
    id="icon-user"
    xmlns="http://www.w3.org/2000/svg" 
    fill="none" 
    stroke="currentColor" 
    stroke-linecap="round" 
    stroke-linejoin="round" 
    stroke-width="2"
    style="stroke: var(--c, currentColor)"
    viewBox="0 0 24 24">
    <circle cx="12" cy="8" r="5"/>
    <path d="M20 21a8 8 0 0 0-16 0"/>
  </symbol>

  <symbol
    id="icon-inbox"
    xmlns="http://www.w3.org/2000/svg" 
    fill="none" 
    stroke="currentColor" 
    stroke-linecap="round" 
    stroke-linejoin="round" 
    stroke-width="2"
    style="stroke: var(--c, currentColor)"
    viewBox="0 0 24 24">
    <path d="M22 12h-6l-2 3h-4l-2-3H2"/>
    <path d="M5.45 5.11 2 12v6a2 2 0 0 0 2 2h16a2 2 0 0 0 2-2v-6l-3.45-6.89A2 2 0 0 0 16.76 4H7.24a2 2 0 0 0-1.79 1.11z"/>
  </symbol>

  <symbol 
    id="icon-search"
    xmlns="http://www.w3.org/2000/svg" 
    fill="none" 
    stroke="currentColor" 
    stroke-linecap="round" 
    stroke-linejoin="round" 
    stroke-width="2"
    style="stroke: var(--c, currentColor)"
    viewBox="0 0 24 24">
    <circle cx="11" cy="11" r="8"/>
    <path d="m21 21-4.3-4.3"/>
  </symbol>

  <symbol 
    id="icon-mails"
    xmlns="http://www.w3.org/2000/svg" 
    fill="none" 
    stroke="currentColor" 
    stroke-linecap="round" 
    stroke-linejoin="round" 
    stroke-width="2"
    style="stroke: var(--c, currentColor)"
    viewBox="0 0 24 24">
    <rect width="16" height="13" x="6" y="4" rx="2"/>
    <path d="m22 7-7.1 3.78c-.57.3-1.23.3-1.8 0L6 7M2 8v11c0 1.1.9 2 2 2h14"/>
  </symbol>

  <symbol 
    id="icon-send"
    xmlns="http://www.w3.org/2000/svg" 
    fill="none" 
    stroke="currentColor" 
    stroke-width="2" 
    stroke-linecap="round" 
    stroke-linejoin="round"
    style="stroke: var(--c, currentColor)"
    viewBox="0 0 24 24">
    <path d="m22 2-7 20-4-9-9-4Z"/>
    <path d="M22 2 11 13"/>
  </symbol>

  <symbol 
    id="icon-mail+" 
    xmlns="http://www.w3.org/2000/svg" 
    fill="none" 
    stroke="currentColor" 
    stroke-width="2" 
    stroke-linecap="round" 
    stroke-linejoin="round"
    style="stroke: var(--c, currentColor)"
    viewBox="0 0 24 24">
    <path d="M22 13V6a2 2 0 0 0-2-2H4a2 2 0 0 0-2 2v12c0 1.1.9 2 2 2h8"/>
    <path d="m22 7-8.97 5.7a1.94 1.94 0 0 1-2.06 0L2 7"/>
    <path d="M19 16v6"/>
    <path d="M16 19h6"/>
  </symbol>
</svg>
