<svg xmlns="http://www.w3.org/2000/svg">
  <symbol 
    id="icon-moon"
    width="24" 
    height="24" 
    fill="none" 
    stroke="currentColor" 
    stroke-linecap="round" 
    stroke-linejoin="round" 
    stroke-width="2"
    style="stroke: var(--c, currentColor)"
    viewBox="0 0 24 24">
    <path d="M12 3a6 6 0 0 0 9 9 9 9 0 1 1-9-9Z"/>
  </symbol>

  <symbol
    id="icon-sun" 
    width="24" 
    height="24" 
    fill="none" 
    stroke="currentColor" 
    stroke-linecap="round" 
    stroke-linejoin="round" 
    stroke-width="2"
    style="stroke: var(--c, currentColor)"
    viewBox="0 0 24 24">
    <circle cx="12" cy="12" r="4"/>
    <path d="M12 2v2M12 20v2M4.93 4.93l1.41 1.41M17.66 17.66l1.41 1.41M2 12h2M20 12h2M6.34 17.66l-1.41 1.41M19.07 4.93l-1.41 1.41"/>
  </symbol>

  <symbol 
    id="icon-spinner"
    width="24" 
    height="24" 
    fill="none" 
    stroke="currentColor" 
    stroke-linecap="round" 
    stroke-linejoin="round" 
    stroke-width="2"
    style="stroke: var(--c, currentColor)"
    viewBox="0 0 24 24">
    <path d="M21 12a9 9 0 1 1-6.219-8.56"/>
  </symbol>

  <symbol 
    id="icon-x"
    width="24" 
    height="24" 
    fill="none" 
    stroke="currentColor" 
    stroke-linecap="round" 
    stroke-linejoin="round" 
    stroke-width="2"
    style="stroke: var(--c, currentColor)"
    viewBox="0 0 24 24">
    <path d="M18 6 6 18M6 6l12 12"/>
  </symbol>

  <symbol 
    id="icon-logout"
    xmlns="http://www.w3.org/2000/svg" 
    fill="none" stroke="currentColor" 
    stroke-linecap="round" 
    stroke-linejoin="round" 
    stroke-width="2" 
    style="stroke: var(--c, currentColor)"
    viewBox="0 0 24 24">
    <path d="M9 21H5a2 2 0 0 1-2-2V5a2 2 0 0 1 2-2h4m7 14 5-5-5-5m5 5H9"/>
  </symbol>

  <symbol 
    id="icon-user"
    xmlns="http://www.w3.org/2000/svg" 
    fill="none" 
    stroke="currentColor" 
    stroke-linecap="round" 
    stroke-linejoin="round" 
    stroke-width="2"
    style="stroke: var(--c, currentColor)"
    viewBox="0 0 24 24">
    <circle cx="12" cy="8" r="5"/>
    <path d="M20 21a8 8 0 0 0-16 0"/>
  </symbol>

  <symbol
    id="icon-inbox"
    xmlns="http://www.w3.org/2000/svg" 
    fill="none" 
    stroke="currentColor" 
    stroke-linecap="round" 
    stroke-linejoin="round" 
    stroke-width="2"
    style="stroke: var(--c, currentColor)"
    viewBox="0 0 24 24">
    <path d="M22 12h-6l-2 3h-4l-2-3H2"/>
    <path d="M5.45 5.11 2 12v6a2 2 0 0 0 2 2h16a2 2 0 0 0 2-2v-6l-3.45-6.89A2 2 0 0 0 16.76 4H7.24a2 2 0 0 0-1.79 1.11z"/>
  </symbol>

  <symbol 
    id="icon-search"
    xmlns="http://www.w3.org/2000/svg" 
    fill="none" 
    stroke="currentColor" 
    stroke-linecap="round" 
    stroke-linejoin="round" 
    stroke-width="2"
    style="stroke: var(--c, currentColor)"
    viewBox="0 0 24 24">
    <circle cx="11" cy="11" r="8"/>
    <path d="m21 21-4.3-4.3"/>
  </symbol>

  <symbol 
    id="icon-mails"
    xmlns="http://www.w3.org/2000/svg" 
    fill="none" 
    stroke="currentColor" 
    stroke-linecap="round" 
    stroke-linejoin="round" 
    stroke-width="2"
    style="stroke: var(--c, currentColor)"
    viewBox="0 0 24 24">
    <rect width="16" height="13" x="6" y="4" rx="2"/>
    <path d="m22 7-7.1 3.78c-.57.3-1.23.3-1.8 0L6 7M2 8v11c0 1.1.9 2 2 2h14"/>
  </symbol>

  <symbol 
    id="icon-send"
    xmlns="http://www.w3.org/2000/svg" 
    fill="none" 
    stroke="currentColor" 
    stroke-width="2" 
    stroke-linecap="round" 
    stroke-linejoin="round"
    style="stroke: var(--c, currentColor)"
    viewBox="0 0 24 24">
    <path d="m22 2-7 20-4-9-9-4Z"/>
    <path d="M22 2 11 13"/>
  </symbol>

  <symbol 
    id="icon-mail-+" 
    xmlns="http://www.w3.org/2000/svg" 
    fill="none" 
    stroke="currentColor" 
    stroke-width="2" 
    stroke-linecap="round" 
    stroke-linejoin="round"
    style="stroke: var(--c, currentColor)"
    viewBox="0 0 24 24">
    <path d="M22 13V6a2 2 0 0 0-2-2H4a2 2 0 0 0-2 2v12c0 1.1.9 2 2 2h8"/>
    <path d="m22 7-8.97 5.7a1.94 1.94 0 0 1-2.06 0L2 7"/>
    <path d="M19 16v6"/>
    <path d="M16 19h6"/>
  </symbol>

  <symbol 
    id="icon-mail-x" 
    xmlns="http://www.w3.org/2000/svg" 
    fill="none" 
    stroke="currentColor" 
    stroke-linecap="round" 
    stroke-linejoin="round" 
    stroke-width="2" 
    style="stroke: var(--c, currentColor)"
    viewBox="0 0 24 24">
    <path d="M22 13V6a2 2 0 0 0-2-2H4a2 2 0 0 0-2 2v12c0 1.1.9 2 2 2h9"/>
    <path d="m22 7-8.97 5.7a1.94 1.94 0 0 1-2.06 0L2 7m15 10 4 4m0-4-4 4"/>
  </symbol>

  <symbol
    id="icon-inbox"
    xmlns="http://www.w3.org/2000/svg" 
    fill="none" 
    stroke="currentColor" 
    stroke-linecap="round" 
    stroke-linejoin="round" 
    stroke-width="2" 
    style="stroke: var(--c, currentColor)"
    viewBox="0 0 24 24">
    <path d="M22 12h-6l-2 3h-4l-2-3H2"/>
    <path d="M5.45 5.11 2 12v6a2 2 0 0 0 2 2h16a2 2 0 0 0 2-2v-6l-3.45-6.89A2 2 0 0 0 16.76 4H7.24a2 2 0 0 0-1.79 1.11z"/>
  </symbol>

  <symbol
    id="icon-dots"
    xmlns="http://www.w3.org/2000/svg" 
    fill="none" 
    stroke="currentColor" 
    stroke-width="2" 
    stroke-linecap="round" 
    stroke-linejoin="round" 
    style="stroke: var(--c, currentColor)"
    viewBox="0 0 24 24">
    <circle cx="20" cy="12" r="1"/>
    <circle cx="12" cy="12" r="1"/>
    <circle cx="4" cy="12" r="1"/>
  </symbol>

  <symbol 
    id="icon-dots-vertical" 
    xmlns="http://www.w3.org/2000/svg" 
    fill="none" 
    stroke="currentColor" 
    stroke-linecap="round" 
    stroke-linejoin="round" 
    stroke-width="1"
    style="stroke: var(--c, currentColor)"
    viewBox="0 0 24 24">
    <circle cx="12" cy="12" r="1"/>
    <circle cx="12" cy="5" r="1"/>
    <circle cx="12" cy="19" r="1"/>
  </symbol>

  <symbol  
    id="icon-trash"
    xmlns="http://www.w3.org/2000/svg" 
    fill="none" 
    stroke="currentColor" 
    stroke-width="2" 
    stroke-linecap="round" 
    stroke-linejoin="round" 
    style="stroke: var(--c, currentColor)"
    viewBox="0 0 24 24">
    <path d="M3 6h18"/>
    <path d="M19 6v14c0 1-1 2-2 2H7c-1 0-2-1-2-2V6"/>
    <path d="M8 6V4c0-1 1-2 2-2h4c1 0 2 1 2 2v2"/>
    <line x1="10" x2="10" y1="11" y2="17"/>
    <line x1="14" x2="14" y1="11" y2="17"/>
  </symbol>

  <symbol 
    id="icon-pencil"
    xmlns="http://www.w3.org/2000/svg" 
    fill="none" 
    stroke="currentColor" 
    stroke-linecap="round" 
    stroke-linejoin="round" 
    stroke-width="2"  
    style="stroke: var(--c, currentColor)"
    viewBox="0 0 24 24">
    <path d="M17 3a2.85 2.83 0 1 1 4 4L7.5 20.5 2 22l1.5-5.5Zm-2 2 4 4"/>
  </symbol>

  <symbol
    id="icon-check"
    xmlns="http://www.w3.org/2000/svg" 
    fill="none" 
    stroke="currentColor" 
    stroke-linecap="round" 
    stroke-linejoin="round" 
    stroke-width="2"
    style="stroke: var(--c, currentColor)"
    viewBox="0 0 24 24">
    <path d="M20 6 9 17l-5-5"/>
  </symbol>

  <symbol 
    id="icon-folder-heart" 
    xmlns="http://www.w3.org/2000/svg" 
    fill="none" 
    stroke="currentColor" 
    stroke-linecap="round" 
    stroke-linejoin="round" 
    stroke-width="2" 
    style="stroke: var(--c, currentColor)"
    viewBox="0 0 24 24">
    <path d="M11 20H4a2 2 0 0 1-2-2V5a2 2 0 0 1 2-2h3.9a2 2 0 0 1 1.69.9l.81 1.2a2 2 0 0 0 1.67.9H20a2 2 0 0 1 2 2v1.5"/>
    <path d="M13.9 17.45c-1.2-1.2-1.14-2.8-.2-3.73a2.43 2.43 0 0 1 3.44 0l.36.34.34-.34a2.43 2.43 0 0 1 3.45-.01v0c.95.95 1 2.53-.2 3.74L17.5 21Z"/>
  </symbol>

  <symbol 
    id="icon-folder-+" 
    xmlns="http://www.w3.org/2000/svg" 
    fill="none"
    stroke="currentColor" 
    stroke-width="2" 
    stroke-linecap="round" 
    stroke-linejoin="round" 
    style="stroke: var(--c, currentColor)"
    viewBox="0 0 24 24">
    <path d="M12 10v6"/>
    <path d="M9 13h6"/>
    <path d="M20 20a2 2 0 0 0 2-2V8a2 2 0 0 0-2-2h-7.9a2 2 0 0 1-1.69-.9L9.6 3.9A2 2 0 0 0 7.93 3H4a2 2 0 0 0-2 2v13a2 2 0 0 0 2 2Z"/>
  </symbol>

  <symbol 
    id="icon-folder-x" 
    xmlns="http://www.w3.org/2000/svg" 
    fill="none" 
    stroke="currentColor" 
    stroke-linecap="round" 
    stroke-linejoin="round" 
    stroke-width="2"
    style="stroke: var(--c, currentColor)"
    viewBox="0 0 24 24">
    <path d="M20 20a2 2 0 0 0 2-2V8a2 2 0 0 0-2-2h-7.9a2 2 0 0 1-1.69-.9L9.6 3.9A2 2 0 0 0 7.93 3H4a2 2 0 0 0-2 2v13a2 2 0 0 0 2 2ZM9.5 10.5l5 5m0-5-5 5"/>
  </symbol>

  <symbol 
    id="icon-info" 
    xmlns="http://www.w3.org/2000/svg" 
    fill="none" 
    stroke="currentColor" 
    stroke-linecap="round" 
    stroke-linejoin="round" 
    stroke-width="2" 
    style="stroke: var(--c, currentColor)"
    viewBox="0 0 24 24">
    <circle cx="12" cy="12" r="10"/>
    <path d="M12 16v-4m0-4h.01"/>
  </symbol>

  <symbol 
    id="icon-chevron-right"
    xmlns="http://www.w3.org/2000/svg" 
    fill="none" 
    stroke="currentColor" 
    stroke-linecap="round" 
    stroke-linejoin="round" 
    stroke-width="2"
    style="stroke: var(--c, currentColor)"
    viewBox="0 0 24 24">
    <path d="m9 18 6-6-6-6"/>
  </symbol>

  <symbol
    id="icon-chevron-left" 
    xmlns="http://www.w3.org/2000/svg" 
    fill="none" 
    stroke="currentColor" 
    stroke-linecap="round" 
    stroke-linejoin="round" 
    stroke-width="2" 
    style="stroke: var(--c, currentColor)"
    viewBox="0 0 24 24">
    <path d="m15 18-6-6 6-6"/>
  </symbol>

  <symbol 
    id="icon-calendar-plus"
    xmlns="http://www.w3.org/2000/svg" 
    fill="none" 
    stroke="currentColor" 
    stroke-linecap="round" 
    stroke-linejoin="round" 
    stroke-width="2" 
    style="stroke: var(--c, currentColor)"
    viewBox="0 0 24 24">
    <path d="M8 2v4m8-4v4m5 7V6a2 2 0 0 0-2-2H5a2 2 0 0 0-2 2v14a2 2 0 0 0 2 2h8M3 10h18m-5 9h6m-3-3v6"/>
  </symbol>
</svg>
